<?xml version="1.0" standalone="no"?>
<!DOCTYPE svg PUBLIC "-//W3C//DTD SVG 20010904//EN"
 "http://www.w3.org/TR/2001/REC-SVG-20010904/DTD/svg10.dtd">
<svg version="1.0" xmlns="http://www.w3.org/2000/svg"
 width="48.000000pt" height="48.000000pt" viewBox="0 0 48.000000 48.000000"
 preserveAspectRatio="xMidYMid meet">

<g transform="translate(0.000000,48.000000) scale(0.100000,-0.100000)"
fill="#000000" stroke="none">
<path d="M140 277 c0 -18 6 -23 25 -23 19 0 25 5 25 23 0 25 -15 31 -23 11 -4
-10 -6 -10 -6 0 -2 22 -21 12 -21 -11z"/>
<path d="M320 280 c0 -15 7 -20 25 -20 18 0 25 5 25 20 0 22 -15 27 -23 8 -4
-10 -6 -10 -6 0 -2 20 -21 13 -21 -8z"/>
<path d="M80 229 c0 -14 7 -19 25 -19 18 0 25 5 25 19 0 13 -7 19 -25 19 -18
0 -25 -6 -25 -19z"/>
<path d="M280 220 c0 -16 -4 -30 -10 -30 -5 0 -10 4 -10 8 0 10 -30 9 -48 -2
-6 -4 -12 -2 -12 3 0 6 -4 11 -10 11 -5 0 -10 -10 -10 -23 0 -21 5 -23 59 -25
55 -2 60 0 63 21 2 12 9 21 16 20 7 -2 12 8 12 22 0 26 -15 34 -23 13 -4 -10
-6 -10 -6 0 -2 26 -21 10 -21 -18z"/>
<path d="M367 243 c-12 -12 -7 -43 6 -43 8 0 13 -10 13 -22 -1 -18 5 -23 27
-24 22 -1 27 3 27 22 0 25 -15 33 -22 12 -3 -9 -6 -9 -12 0 -4 7 -2 12 3 12 6
0 11 11 11 25 0 14 -4 25 -10 25 -5 0 -10 -5 -10 -11 0 -8 -4 -9 -13 0 -8 6
-17 8 -20 4z"/>
<path d="M39 163 c0 -21 -3 -32 -6 -25 -8 20 -23 14 -23 -11 0 -18 6 -23 25
-23 19 0 25 5 25 23 0 14 6 23 15 23 10 0 15 10 15 26 0 22 -2 25 -15 14 -10
-9 -15 -9 -15 -1 0 6 -4 11 -10 11 -5 0 -10 -17 -11 -37z"/>
<path d="M204 127 c-9 -23 4 -37 31 -35 19 2 25 8 25 25 0 13 -4 23 -10 23 -5
0 -10 -5 -10 -11 0 -8 -5 -8 -15 1 -12 10 -16 9 -21 -3z"/>
<path d="M410 110 c0 -15 7 -20 25 -20 18 0 25 5 25 20 0 22 -15 27 -23 8 -4
-10 -6 -10 -6 0 -2 20 -21 13 -21 -8z"/>
</g>
</svg>
